<?xml version="1.0" encoding="utf-8"?>
<!-- Generator: Adobe Illustrator 27.5.0, SVG Export Plug-In . SVG Version: 6.00 Build 0)  -->
<svg version="1.1" xmlns="http://www.w3.org/2000/svg" xmlns:xlink="http://www.w3.org/1999/xlink" x="0px" y="0px"
	 viewBox="0 0 1122 1122" style="enable-background:new 0 0 1122 1122;" xml:space="preserve">
<g id="BG">
	<g>
		<rect style="fill:#89A8CE;" width="1122" height="1122"/>
	</g>
</g>
<g id="Shadow">
	<g>
		<ellipse style="fill:#AFAEAE;" cx="544.812" cy="883.082" rx="176.362" ry="27.918"/>
	</g>
</g>
<g id="Animal">
	<g>
		<g>
			<g>
				<path style="fill:#070707;" d="M673.508,314.502c0,0-24.514,24.514,0,103.502c24.514,78.988,157.977,212.451,108.949,307.782
					c0,0-23.815,34.933-24.514,19.066c-0.448-10.172,32.85-47.647-19.066-70.817c0,0,10.895,122.568-133.463,152.529
					c0,0-10.895,21.79-2.724,29.961c8.171,8.171,19.066,8.171,13.619,19.066c0,0-5.447,2.724-13.619,0c0,0-2.724,8.171-13.619,5.448
					c-10.895-2.724-13.619-5.448-13.619-5.448s5.447,5.448-2.724,5.448c-8.171,0-27.237-2.724-13.619-21.79
					c13.619-19.066,10.895-35.409,10.895-35.409s-40.856,5.447-70.817-2.724c0,0,0,27.237,8.171,38.132
					c8.171,10.895,24.514,16.342,13.619,24.514c0,0-10.895,2.724-19.066-2.724c0,0,0,8.171-16.342,5.448c0,0-10.895,0-8.171-5.448
					c0,0-8.171,10.895-19.066,2.724c-10.895-8.171,13.619-8.171,13.619-27.237c0-2.383,0.459-8.845-5.033-12.145
					c-147.497-88.633-237.38-295.637,52.178-484.056c2.949-1.919,4.85-5.129,7.329-7.69c0,0,65.37-152.529,141.634-122.568
					L708.917,211l-35.409,38.132l57.198-2.724l-43.58,21.79C687.127,268.198,689.85,281.817,673.508,314.502z"/>
			</g>
		</g>
		<g>
			<g>
				<path style="fill:#070707;" d="M454.98,417.087c0.002-0.349-3.638-80.185,18.611-106.1
					c22.249-25.915,14.781-35.561-7.086-23.723c-21.867,11.838-76.056,130.006-58.095,183.541L454.98,417.087z"/>
			</g>
		</g>
		<g>
			<g>
				<path style="fill:#F3F3F3;" d="M613.586,382.595c0,0,24.514-21.79,32.685,13.619c8.151,35.321,95.331,160.7,65.37,302.335
					c-0.153,0.724,3.339,23.617-29.961,70.817c-4.42,6.265-46.303,32.685-73.541,40.856
					c-24.612,7.384-141.634,10.895-177.043-19.066c-19.616-16.598-133.463-130.739-32.685-269.65
					c84.738-116.801,131.759-150.252,145.5-160.282c4.305-3.142,11.367-0.409,15.2,2.305c2.427,1.719,6.527,10.33,8.171,13.619
					C572.73,388.043,597.243,398.938,613.586,382.595z"/>
			</g>
		</g>
		<g>
			<g>
				<path style="fill:#F3F3F3;" d="M651.718,251.856c0,0-29.961-10.895-43.58,10.895
					C608.138,262.751,632.652,276.37,651.718,251.856z"/>
			</g>
		</g>
		<g>
			<g>
				<path style="fill:#070707;" d="M627.31,258.44c1.196,4.536,3.549,7.847,5.257,7.397c1.708-0.45,2.124-4.492,0.928-9.027
					c-1.195-4.536-3.549-7.847-5.257-7.397C626.53,249.863,626.115,253.905,627.31,258.44z"/>
			</g>
		</g>
	</g>
</g>
</svg>
